<svg xmlns="http://www.w3.org/2000/svg" viewBox="0 0 64 64" id="medical-document">
  <g>
    <path d="m55.74 12.33-10-10A1 1 0 0 0 45 2H16.9A2.8 2.8 0 0 0 14 4.67v46.66A2.8 2.8 0 0 0 16.9 54h36.2a2.88 2.88 0 0 0 2.79-2 1 1 0 0 0 .11-.4V13a1 1 0 0 0-.26-.67ZM46 5.41 52.59 12H47a1 1 0 0 1-1-.87Zm8 45.92c0 .36-.42.67-.9.67H16.9c-.48 0-.9-.31-.9-.67V4.67c0-.36.42-.67.9-.67H44v7.13A2.94 2.94 0 0 0 47 14h7Z"></path>
    <path d="M52.59 12H47a1 1 0 0 1-1-.87V5.41zM45.9 47a1 1 0 0 1-1 1H25.1a1 1 0 1 1 0-2h19.8a1 1 0 0 1 1 1zm0-5a1 1 0 0 1-1 1H25.1a1 1 0 1 1 0-2h19.8a1 1 0 0 1 1 1zm0-5a1 1 0 0 1-1 1H25.1a1 1 0 0 1 0-2h19.8a1 1 0 0 1 1 1zM35 10a11 11 0 1 0 11 11 11 11 0 0 0-11-11zm6 12a1 1 0 0 1-1 1h-3v3a1 1 0 0 1-1 1h-2a1 1 0 0 1-1-1v-3h-3a1 1 0 0 1-1-1v-2a1 1 0 0 1 1-1h3v-3a1 1 0 0 1 1-1h2a1 1 0 0 1 1 1v3h3a1 1 0 0 1 1 1z" opacity=".5"></path>
    <path d="M46 54v4a1 1 0 0 1-1 1H11a1 1 0 0 1-1-1V12a1 1 0 0 1 1-1h3v40.33A2.8 2.8 0 0 0 16.9 54Z" opacity=".5"></path>
    <path d="M48 53v5a3 3 0 0 1-3 3H11a3 3 0 0 1-3-3V12a3 3 0 0 1 3-3h4a1 1 0 0 1 0 2h-4a1 1 0 0 0-1 1v46a1 1 0 0 0 1 1h34a1 1 0 0 0 1-1v-5a1 1 0 0 1 2 0Z"></path>
  </g>
</svg>
